# xmcd
#
# Track frame offsets: 
#        150
#        39876
#        87718
#        117369
#        152436
#        189638
#        227335
#
# Disc length: 4141 seconds
#
# Revision: 0
# Processed by: cddbd v1.5PL3 Copyright (c) Steve Scherf et al.
# Submitted via: ExactAudioCopy v0.95a3
#
DISCID=4b102b07
DTITLE=Seth James - Live at Gruene Hall
DYEAR=2004
DGENRE=Blues
TTITLE0=Sweet Thing
TTITLE1=Black Jack
TTITLE2=House on the Hill
TTITLE3=Look on Yonder Wall
TTITLE4=Chains at my Feet
TTITLE5=Too Many Dirty Dishes
TTITLE6=Killing Floor
EXTD=
EXTT0=
EXTT1=
EXTT2=
EXTT3=
EXTT4=
EXTT5=
EXTT6=
PLAYORDER=
